<?xml version="1.0" encoding="UTF-8" standalone="no"?>
<!DOCTYPE svg PUBLIC "-//W3C//DTD SVG 1.1//EN" "http://www.w3.org/Graphics/SVG/1.1/DTD/svg11.dtd">
<svg width="100%" height="100%" viewBox="0 0 1108 512" version="1.1" xmlns="http://www.w3.org/2000/svg" xmlns:xlink="http://www.w3.org/1999/xlink" xml:space="preserve" xmlns:serif="http://www.serif.com/" style="fill-rule:evenodd;clip-rule:evenodd;stroke-linejoin:round;stroke-miterlimit:2;">
    <g transform="matrix(1,0,0,1,-571,0)">
        <g transform="matrix(1,0,0,1,-0.33791,0)">
            <rect id="Artboard2" x="571.338" y="0" width="1107.59" height="512" style="fill:none;"/>
            <g id="Artboard21" serif:id="Artboard2">
                <g transform="matrix(3.69273,0,0,3.69273,-2775.87,-525.052)">
                    <path d="M1032.8,229.461L1021.4,229.461L1021.4,193.561L1026.2,193.561L1026.2,225.111L1032.8,225.111L1032.8,229.461Z" style="fill:white;fill-rule:nonzero;"/>
                    <path d="M1051.15,193.561L1051.15,222.661C1051.15,227.194 1049.21,229.461 1045.35,229.461L1041.3,229.461C1037.46,229.461 1035.55,227.178 1035.55,222.611L1035.55,193.561L1040.35,193.561L1040.35,222.761C1040.35,224.328 1041.05,225.111 1042.45,225.111L1044.4,225.111C1045.7,225.111 1046.35,224.328 1046.35,222.761L1046.35,193.561L1051.15,193.561Z" style="fill:white;fill-rule:nonzero;"/>
                    <path d="M1065.6,210.911L1065.6,193.561L1070.4,193.561L1070.4,229.461L1065.6,229.461L1065.6,222.311L1060.45,205.961L1060.45,229.461L1055.65,229.461L1055.65,193.561L1060.45,193.561L1065.6,210.911Z" style="fill:white;fill-rule:nonzero;"/>
                    <path d="M1079.45,229.461L1074.65,229.461L1074.65,199.711C1074.65,195.611 1076.56,193.561 1080.4,193.561L1084,193.561C1087.83,193.561 1089.75,195.611 1089.75,199.711L1089.75,229.461L1084.95,229.461L1084.95,216.311L1079.45,216.311L1079.45,229.461ZM1084.95,211.961L1084.95,200.011C1084.95,198.611 1084.25,197.911 1082.85,197.911L1081.55,197.911C1080.15,197.911 1079.45,198.611 1079.45,200.011L1079.45,211.961L1084.95,211.961Z" style="fill:white;fill-rule:nonzero;"/>
                    <path d="M1094,193.561L1103.4,193.561C1107.06,193.561 1108.9,195.611 1108.9,199.711L1108.9,208.561C1108.9,211.694 1107.95,213.678 1106.05,214.511L1109.4,229.461L1104.85,229.461L1101.7,214.961L1098.8,214.961L1098.8,229.461L1094,229.461L1094,193.561ZM1098.8,210.861L1101.95,210.861C1103.38,210.861 1104.1,209.994 1104.1,208.261L1104.1,200.511C1104.1,198.778 1103.38,197.911 1101.95,197.911L1098.8,197.911L1098.8,210.861Z" style="fill:white;fill-rule:nonzero;"/>
                    <path d="M1136.5,193.561L1136.5,222.661C1136.5,227.194 1134.56,229.461 1130.7,229.461L1126.65,229.461C1122.81,229.461 1120.9,227.178 1120.9,222.611L1120.9,193.561L1125.7,193.561L1125.7,222.761C1125.7,224.328 1126.4,225.111 1127.8,225.111L1129.75,225.111C1131.05,225.111 1131.7,224.328 1131.7,222.761L1131.7,193.561L1136.5,193.561Z" style="fill:white;fill-rule:nonzero;"/>
                    <rect x="1141" y="193.561" width="4.8" height="35.9" style="fill:white;fill-rule:nonzero;"/>
                </g>
                <g id="Logo-Shape" serif:id="Logo Shape" transform="matrix(0.778333,0,0,0.778333,689.014,32.8511)">
                    <path d="M209.643,164.913C276.86,164.913 331.431,219.485 331.431,286.701C331.431,353.918 276.86,408.489 209.643,408.489C142.427,408.489 87.855,353.918 87.855,286.701C87.855,219.485 142.427,164.913 209.643,164.913ZM302.754,333.309C289.593,341.121 274.23,345.607 257.828,345.607C209.143,345.607 169.617,306.081 169.617,257.395C169.617,225.876 186.184,198.196 211.077,182.595C210.6,182.588 210.122,182.585 209.643,182.585C152.18,182.585 105.527,229.238 105.527,286.701C105.527,344.164 152.18,390.817 209.643,390.817C250.356,390.817 285.642,367.399 302.754,333.309Z" style="fill:white;"/>
                </g>
            </g>
        </g>
    </g>
</svg>
